<?xml version="1.0" encoding="UTF-8"?>
<svg id="Layer_1" data-name="Layer 1" xmlns="http://www.w3.org/2000/svg" viewBox="0 0 162.6 49.88">
  <defs>
    <style>
      .cls-1 {
        fill: #9c9ea1;
      }

      .cls-2 {
        fill: #010101;
      }

      .cls-3 {
        fill: #fff;
      }
    </style>
  </defs>
  <path class="cls-1" d="M68.89,37.76c-1.53-.76-10.26-5.82-10.98-6.25-.22-.13-.38-.29-.51-.45-.05-.07-.07-.14-.06-.22-1.81-1.13-1.3-2.86-3.26-3.65-1.26.57-4.73,1.96-4.94,2.09-.76.48-1.27.92-1.72,1.46-.32.38-.2.83.07,1.2,1.07,1.46,12.63,7.88,13.2,8.08.06.02.07.06.11.1l-.05.04c-.15-.02-.3-.03-.46-.05-1.09-.1-1.68-.18-2.77-.29-2.08-.2-44.67-4.56-47.58-4.64-.32-.01-2.35.18-5.22,1.08-3.39,1.06-4.8,2.12-4.59,2.5.17.31.32,1.78,4.41,2.27.21.02,50.77,3.38,51.77,3.44,1.64.1,3.3.1,4.97-.04.38-.03.78-.07,1.12-.15,3.8-.91,7.22-4.27,7.54-4.83.02-.08.57-.88-1.05-1.69"/>
  <path class="cls-1" d="M162.47,40.13c-4.41-7.17-20.3-6.05-40.76-5.11-1.63.08-3.17.29-4.69.52-.64.1-1.29.19-1.92.3-1.21.21-2.42.42-3.59.66-1.63.34-3.35.51-5.14.58-.57.02-1.14.06-1.71.07-1.27.02-2.53.03-3.74-.14-9.08-1.34-43.56-10.41-44.26-10.21,1.14.52,2.59,6.19,3.63,6.88.42.05,22.6,3.23,33.22,6.69,1.62.53,4.72,1.9,6.06,2.73.78.48,1.49.94,2.15,1.49,8.37,6.97,30.01,5.08,31.68,4.96,28.24-2.1,29.8-8.24,29.07-9.42"/>
  <path class="cls-2" d="M142.95,43.7c1.7-.27,3.35-.67,4.94-1.28.95-.37,1.88-.81,2.81-1.24.52-.24.91-.66,1.3-1.06.27-.28.52-.57.75-.87.18-.23.12-.39-.13-.53-.3-.17-.62-.12-.94-.04-.83.22-1.65.47-2.48.67-.71.18-1.42.31-2.13.47-.35.08-.7.16-1.04.23-.15.03-.29.06-.43.15.17-.02.34-.02.5-.05,1.09-.15,2.18-.3,3.27-.45.19-.03.36-.02.47.17.09.16.11.35,0,.47-.29.29-.48.67-.86.91-.97.61-1.99,1.1-3.06,1.49-.6.22-1.21.43-1.82.62-.32.1-.64.17-.96.26-.06.03-.12.06-.18.08"/>
  <path class="cls-2" d="M144.64,40.37c-.07.01-.14.01-.2.02,0,.02,0,.04,0,.07.07-.01.13-.02.2-.03,0-.03,0-.05,0-.06"/>
  <path class="cls-2" d="M160.05,27.71c-2.74-7.45-19.89-14.62-39.18-12.99-1.54.13-2.99.59-4.42,1.1-.6.22-1.22.4-1.81.65-1.14.47-2.28.93-3.38,1.47-1.53.77-3.15,1.11-4.84,1.22-.54.04-1.07.11-1.61.12-1.2.02-2.38-.09-3.53-.46-1.06-.34-2.12-.68-3.17-1.06-.85-.31-15.98-6.39-16.82-6.75-.28-.12,13.74,5.45,13.45,5.34-2.73-1.03-19.72-7.89-22.42-9-1.78-.73-3.57-1.41-5.37-2.09-1.62-.61-3.25-1.17-4.88-1.76-1.58-.57-3.14-1.18-4.73-1.73-1-.35-2.02-.65-3.04-.96-.45-.14-.91-.27-1.36-.42-.81-.26-1.65-.32-2.5-.39-2.02-.15-5.9,4.72-6.32,5.32-.76,1.09-1.27,2.1-1.73,3.34-.32.88-.21,1.96.06,2.87,1.05,3.6,12.54,19.92,13.1,20.47.06.06.07.16.11.24-.02.03-.03.05-.05.08-.15-.05-.3-.1-.46-.15-1.09-.33-1.68-.58-2.76-.93-2.07-.66-39.64-13.28-42.55-13.74-.32-.05-2.34.22-5.22,2.12C1.23,21.86-.19,24.27.02,25.21c.17.76,0,1.45,4.07,2.96.2.08,47.31,13.6,48.31,13.84,1.63.39,3.29.52,4.96.33.38-.04.77-.1,1.12-.26,3.8-1.85,5.98-9.38,6.3-10.68.04-.17.59-2.05-1.02-4.12-1.52-1.95-10.19-14.81-10.9-15.89-.22-.34-.38-.73-.51-1.11-.08-.23-.07-.51-.05-.76.02-.27.11-.44.49-.31,1.06.36,2.12.68,3.18,1.04,2.91.98,20.17,7.54,23.04,8.65,7.37,2.83,14.59,6.87,15.66,7.82,1.53,1.36,4.13,4.59,5.4,6.62.74,1.18,1.38,2.42,2.05,3.64,2.1,3.79,5.16,5.62,5.81,6,9.66,5.74,27.41,3.64,28.98,3.4,26.63-4.14,23.9-16.59,23.14-18.67M94.16,24.02c-19.82-8.62-39.65-15.57-41.24-16.12-1.09-.38-2.19-.67-3.31-.96-1.18-.31-.98-.89.33-.59.98.23,1.85.4,2.84.63,1.41.33,19.4,6.37,40.13,15.71.78.35,2.22.93,2.76,1.5.21.22-.27.37-1.51-.17"/>
  <path class="cls-3" d="M158.95,29.88c-.19-.54-.64-.82-1.09-.45-12.39,10.33-36.69,9.62-38.87,9.37-1.45-.16-8.77-.66-15.19-6.16-.15-.13-.61-.47-.57.14.04.54.2,1.05.34,1.57,1.1,4.26,3.45,5.98,3.53,6.08,0,0,.51.47.76.68.8.67,2.05,1.37,3,1.81.12.05,3.82,2.68,17.76,2.5.56-.01,1.14-.02,1.73-.04,10.31-.29,19.11-3.2,23.25-5.91.84-.46,2.8-2.27,3.46-3.07.7-.81,2.62-4.49,1.89-6.52M154.4,37.64c-.03.33-.25.54-.49.78-2.79,1.99-11.29,5.84-23.56,6.18-11.7.33-19.14-1.54-22.07-4.36-.52-.5-.9-1.12-1.34-1.68-.16-.2-.21-.44-.23-.71.07.02.11.02.14.04.95.63,2.01,1.03,3.11,1.3,1.69.42,3.35.98,5.08,1.22.19.03.37.09.56.14,1.88.49,3.79.78,5.73.78.54,0,1.05-.1,1.51-.36.38-.21.74-.46,1.12-.67.2-.11.42-.22.64-.23,1.34-.06,2.69-.1,4.03-.14,1.14-.03,2.28-.04,3.42-.09,1.98-.09,3.96-.21,5.94-.3,2.38-.11,4.75-.34,7.1-.8,2.67-.52,5.32-1.09,7.98-1.64.36-.07.7-.1,1.04.07.23.12.31.2.29.47"/>
  <path class="cls-3" d="M137.67,19.77s.03-.01.04-.01c.2-.06.37-.16.37-.4,0-.22-.15-.33-.33-.38-.33-.11-.66-.23-1-.28-1.44-.22-2.82-.64-4.22-1.02-1.27-.35-2.57-.55-3.88-.67-2.46-.21-4.92-.11-7.36.26-1.89.29-3.72.79-5.46,1.58-.82.37-1.6.84-2.39,1.29-.52.29-.94.7-1.23,1.23-.19.35-.16.48.21.6.65.22,1.31.38,2,.32,1.11-.09,2.22-.17,3.33-.31,3.23-.39,6.47-.81,9.7-1.22,1.33-.17,2.66-.36,3.99-.52.55-.07,1.11-.11,1.67-.14,1.2-.07,2.41-.13,3.61-.2.32-.02.63-.07.94-.11.01-.01.01-.02.01-.02"/>
  <path class="cls-3" d="M55.07,40.63c-.12-.02-.32-.02-.5-.08-.89-.27-1.78-.55-2.67-.84-.37-.12-2.65-.72-3.33-.94-.5-.11-1.01-.2-1.5-.32-1.23-.31-2.46-.61-3.68-.94-3.09-.85-6.2-1.59-9.25-2.57-.66-.21-3.26-.96-4.8-1.41-2.27-.66-4.56-1.31-6.83-1.97-1.87-.55-1.54-.42-3.44-.88-1.22-.29-2.43-.63-3.64-.97-.63-.17-1.24-.4-1.87-.58-1.19-.34-2.41-.61-3.59-1-1.18-.4-2.41-.58-3.57-1.04-.85-.34-1.77-.52-2.66-.74-.56-.14-1.11-.3-1.64-.52-.21-.09-.33-.23-.38-.44,0,0,.31-1.06,2.26-.56.34.09.7.15,1.05.23.35.08.7.15,1.05.24.84.23,1.67.47,2.51.7l9.46,2.82c.45.16.9.31,1.35.45,1.79.58,1.42.39,3.22.95,1.76.54,3.53,1.08,5.3,1.59,1.49.43.29.14,1.78.57,3.11.91,6.21,1.85,9.32,2.77.11.03.21.06.32.09l9.56,2.86c.35.09,2.66.87,3,.97.22.07.43.17.65.2.31.05.61.12.92.18l1.49.44c.11.04.21.09.3.16.17.17.12.46-.19.58"/>
  <path class="cls-3" d="M54.56,26.54c.91,1.29,1.78,2.59,2.67,3.9.85,1.25,1.64,2.53,2.28,3.91.51,1.09.69,2.21.73,3.42.02.66-.27,1.29-.71,1.79-1.16,1.31-2.42,1.4-2.68,1.37-.14-.02-.28-.08-.31-.24-.03-.18.08-.28.23-.36.04-.03.09-.04.14-.06.26-.11.52-.22.77-.35.57-.29,1.07-.68,1.35-1.26.31-.66.37-.83.26-1.56-.04-.29-.07-.59-.12-.88-.11-.7-.29-1.38-.64-2-.45-.79-.85-1.61-1.35-2.37-1.13-1.68-2.28-3.34-3.48-4.97-1.4-1.9-2.76-3.81-4.08-5.77-.82-1.22-1.64-2.44-2.45-3.67-.64-.97-1.24-1.98-1.91-2.92-.76-1.06-1.19-2.26-1.61-3.46-.13-.37-.25-.85-.27-1.26-.02-.63.06-1.64,1.08-1.67-.06.31-.14.57-.15.83-.05.73,0,1.46.3,2.15.25.55.47,1.11.75,1.64.66,1.27,1.42,2.49,2.25,3.66.59.84,1.16,1.69,1.73,2.54.44.67.84,1.38,1.3,2.04,1.27,1.85,2.61,3.69,3.92,5.55"/>
  <path class="cls-3" d="M94.16,24.16c-19.82-8.62-39.65-15.58-41.24-16.12-1.09-.38-2.19-.67-3.31-.96-1.18-.31-.98-.89.33-.59.98.23,1.85.4,2.84.63,1.41.33,19.4,6.37,40.13,15.71.78.35,2.22.93,2.76,1.5.21.21-.27.37-1.51-.17"/>
</svg>