<?xml version="1.0" encoding="UTF-8"?>
<svg id="Layer_1" xmlns="http://www.w3.org/2000/svg" version="1.1" viewBox="0 0 65.3 95.7">
  <!-- Generator: Adobe Illustrator 29.3.1, SVG Export Plug-In . SVG Version: 2.1.0 Build 151)  -->
  <defs>
    <style>
      .st0 {
        fill: #010101;
      }

      .st1 {
        fill: #fff;
      }
    </style>
  </defs>
  <path class="st0" d="M13.9,26.9h0v.2h0v-.2"/>
  <path class="st0" d="M33.3,106.9h7.4c0-5.5-.6-15.6,1.2-20.2,2-6.7,5.3-5.3,15.4-16.6,10.1-11.3,6.5-41.6-.8-51.5-7.4-9.8-13.3-16-23.1-16h0c-9.8,0-15.7,6.2-23.1,16-7.4,9.8-14.5,36.3-.8,51.5,13.7,15.2,13.5,9.8,15.4,16.6,1.8,4.6,1.2,14.7,1.2,20h7.3c0,.2,0,0,0,0h0v.2Z"/>
  <path class="st1" d="M44.7,76.6h0c0,.2,0,.3.2.5.2,0,.5,0,.6,0,.4-.2.7-.3,1-.6,1.3-1.1,2.6-1.9,4-2.8,1.3-.8,2.4-1.7,3.4-2.7,1.9-1.8,3.5-3.9,4.7-6.1.9-1.7,1.7-3.5,2-5.3.2-.9.2-1.7.2-2.6,0-.6-.1-1.1-.5-1.7-.2-.3-.4-.4-.8-.2-.7.3-1.2.9-1.7,1.4-.6.9-1.2,1.9-1.9,2.8-1.8,2.8-3.5,5.7-5.3,8.5-.7,1.2-1.4,2.4-2.2,3.6-.3.5-.6,1-1,1.4-.7,1-1.5,2-2.2,3.1-.2.2-.3.6-.5.8h0"/>
  <path class="st1" d="M20.5,44.2h0c.2-.3.6-.6.8-.9,1-1.2,2-2.5,2.9-3.8.5-.7.9-1.2,1.4-1.8,1.2-1.3,2.5-2.5,3.6-3.8,2.9-3,5.8-6.1,8.7-9.3,1-1,1.8-2.1,2.8-3.2.7-.6.8-1.5.9-2.5s-.1-.7-.8-.9c-1-.3-2-.2-2.7,0-1.2.3-2.6.6-3.6,1.1-2.4,1-4.5,2.5-6.4,4.2-2.2,2.2-4.1,4.8-5.6,7.8-.8,1.5-1.3,3.3-1.6,5-.4,2-.7,3.9-1.4,5.8-.2.4-.3.9-.3,1.4,0,0,0,.4.4.6.5.3.7,0,.9,0h0"/>
  <path class="st1" d="M9.7,52c-1-14.2,15.1-46.2,30.3-42.4,1.2,2.2,1.5-4.1-6.2-5S15.4,15.4,12.1,21.1c-3.4,5.8-9.5,23.1-7.2,33.1,2.3,10,6.1,15.3,9.1,18.6s-3.3-6.6-4.3-20.8Z"/>
  <path class="st1" d="M28.3,79.8c1,2.2,2,4.2,2.8,6,.5,1.1-.1,20.5-.1,20.5l-.5.5s0-20.8-1.9-24.8c-.4-.8-1-2.1-1.1-3,0-.3.3-.3.9.9"/>
</svg>