<?xml version="1.0" encoding="UTF-8"?>
<svg id="Layer_1" data-name="Layer 1" xmlns="http://www.w3.org/2000/svg" viewBox="0 0 67.58 84.45">
  <defs>
    <style>
      .cls-1 {
        fill: #010101;
      }

      .cls-2 {
        fill: #fff;
      }
    </style>
  </defs>
  <path class="cls-1" d="M10.7,17.69c.02-.06.05-.12.09-.19.09-.34.15-.68.25-1.02.19-.64.41-1.28.65-1.91.41-1.13.97-2.19,1.68-3.18.28-.39.77-.55,1.13-.84.15-.11.4-.06.62.06.26.15.29.33.27.54-.1,1.19-.2,2.37-.3,3.55-.03.17,0,.36-.02.54.11-.14.13-.29.16-.45.06-.37.14-.74.21-1.12.15-.76.25-1.53.43-2.29.19-.89.45-1.77.67-2.67.08-.35.11-.7-.14-1.05-.21-.29-.43-.38-.72-.21-.38.22-.74.46-1.09.73-.5.38-1.02.76-1.29,1.31-.48.97-.98,1.95-1.38,2.95-.66,1.67-1.03,3.43-1.22,5.25"/>
  <path class="cls-1" d="M14.93,16.29h-.08c0,.07-.01.13-.02.21h.09c0-.06,0-.13,0-.21"/>
  <path class="cls-1" d="M30.71.6C27.77-.5,3.47-3.12.55,25.66c-.16,1.67-3.32,17.77,7.6,30.6.55.76,3.91,4.82,8.51,7.51,1.67.96,5.91,2.48,7.55,3.51,5.04,2.37,11.69,2.84,15.01,6.54,3.33,3.69,16.62,5.58,18.46,10.62l9.9-3.47c-1.48-2.74-12.17-8.96-12.33-9.28-3.05-1.73-3.8-2.05-4.36-3.28-.61-1.34-1.25-4.34-1.24-4.92.24-3.28,1.37-5.15,2.33-6.69.67-1.11,2.32-4.71,2.58-5.34.61-1.5,1.07-2.81,1.88-6.37C60.45,18.49,41.4,4.59,30.71.6"/>
  <path class="cls-2" d="M20.41,6.68c-2.73-.72-7.03,1.33-7.91,2.07-.88.69-2.77,2.71-3.19,3.57-2.58,4.21-4.51,13.03-2.97,23.25.08.58.18,1.15.27,1.71,2.31,13.64,6.17,17.38,6.25,17.5.71.95,1.78,2.2,2.74,3.02.3.26.97.78.97.78.14.08,2.67,2.48,8.14,3.83.67.17,1.34.36,2.02.44.77.08.26-.39.08-.55-10.13-6.58-11.24-13.37-11.69-14.81-.7-2.16-6.65-33.89,6.08-39.67.39-.47-.05-.94-.78-1.12"/>
  <path class="cls-2" d="M20.77,30.56s-.02-.03-.02-.04c-.12-.19-.28-.34-.6-.22-.29.11-.41.33-.45.55-.08.42-.18.85-.18,1.25-.02,1.71-.32,3.46-.56,5.2-.23,1.59-.25,3.13-.16,4.65.19,2.83.78,5.51,1.74,8.01.74,1.93,1.74,3.68,3.11,5.18.64.7,1.4,1.31,2.14,1.94.48.42,1.09.66,1.83.7.49.02.65-.08.74-.54.17-.82.26-1.62.05-2.34-.32-1.16-.63-2.33-1.01-3.47-1.1-3.33-2.25-6.68-3.39-10.03-.47-1.38-.97-2.76-1.43-4.15-.2-.58-.35-1.18-.5-1.78-.32-1.3-.63-2.61-.94-3.92-.09-.35-.21-.67-.32-.99-.02,0-.03,0-.03,0"/>
  <path class="cls-2" d="M49.67,43.15s.02.03.03.04c.15.2.34.34.6.17.24-.16.29-.42.26-.68-.03-.49-.05-.98-.14-1.44-.4-1.93-.56-3.94-.78-5.94-.19-1.82-.55-3.56-1-5.26-.87-3.17-2.06-6.1-3.53-8.8-1.14-2.08-2.47-3.92-4.07-5.43-.75-.71-1.58-1.29-2.4-1.91-.53-.41-1.14-.6-1.82-.55-.45.04-.57.17-.53.71.05.95.17,1.86.53,2.64.57,1.27,1.14,2.54,1.77,3.78,1.81,3.61,3.67,7.23,5.52,10.86.77,1.5,1.55,2.98,2.31,4.49.32.62.61,1.28.89,1.94.61,1.42,1.21,2.87,1.81,4.29.16.38.36.73.54,1.08.02,0,.03,0,.03,0"/>
  <path class="cls-2" d="M36.43,66.5c-1-1.35-.87-1.85-.54-1.61.9.61,1.99,2.18,2.63,3.03,3.39,4.51,24.55,15.19,24.55,15.19l-.75.36s-20.06-9.1-20.96-10.32c-1.48-1.96-3.13-4.18-4.95-6.65"/>
</svg>