<svg id="Layer_1" data-name="Layer 1" xmlns="http://www.w3.org/2000/svg" viewBox="0 0 126.83 107.03">
  <defs>
    <style>
      .cls-1 {
        fill: #010101;
      }

      .cls-2 {
        fill: #fff;
      }
    </style>
  </defs>
  <path class="cls-1" d="M103.2,102.64c1.52.81,3.08,1.48,4.71,1.96.98.28,1.99.49,2.99.7.56.12,1.12.02,1.68-.06.38-.06.76-.14,1.12-.24.28-.08.33-.24.22-.5-.14-.32-.42-.47-.73-.6-.79-.32-1.6-.62-2.38-.96-.68-.28-1.32-.61-1.98-.91-.33-.15-.65-.29-.97-.44-.14-.07-.27-.13-.43-.14.15.09.28.19.43.26.96.54,1.92,1.07,2.88,1.61.17.09.3.2.27.42-.02.18-.12.35-.29.37-.41.06-.79.25-1.23.21-1.14-.1-2.25-.32-3.34-.66-.61-.19-1.22-.39-1.83-.6-.32-.11-.61-.25-.92-.37-.07-.01-.13-.02-.19-.04"/>
  <path class="cls-1" d="M106.55,101c-.06-.03-.12-.08-.17-.1-.01.02-.02.03-.03.06.06.03.12.06.18.1.01-.03.02-.05.03-.05"/>
  <path class="cls-1" d="M126.48,100.18c2.3-7.6-7.06-23.65-23.43-33.98-1.31-.82-2.74-1.33-4.19-1.79-.61-.19-1.21-.42-1.84-.57-1.19-.31-2.38-.63-3.58-.86-1.68-.31-3.18-1.01-4.6-1.94-.45-.29-.92-.56-1.36-.87-.97-.71-1.84-1.51-2.54-2.49-.64-.91-1.28-1.82-1.89-2.76-.49-.76-8.9-14.73-9.35-15.52-.15-.26,7.68,12.63,7.51,12.37-1.56-2.47-10.98-18.18-12.46-20.7-.98-1.66-2-3.28-3.02-4.9-.92-1.46-1.89-2.89-2.83-4.35-.92-1.41-1.79-2.83-2.73-4.23-.59-.88-1.22-1.74-1.85-2.6-.27-.38-.56-.76-.83-1.15-.49-.7-1.12-1.25-1.76-1.82-1.52-1.34-7.55.21-8.25.44-1.26.41-2.28.91-3.39,1.62-.79.51-1.35,1.44-1.68,2.33-1.33,3.51-2,23.45-1.89,24.23.01.08-.04.17-.06.26-.03.01-.05.02-.09.03-.09-.13-.18-.26-.28-.4-.67-.92-.99-1.48-1.64-2.41C37.2,36.33,14.83,3.61,12.78,1.49c-.23-.23-2-1.23-5.44-1.45C3.28-.22.7.85.3,1.73-.02,2.44-.58,2.88,1.76,6.54c.11.18,29.55,39.37,30.2,40.16,1.07,1.29,2.31,2.4,3.76,3.25.33.2.67.38,1.05.47,4.15.81,10.43-3.88,11.46-4.72.13-.11,1.71-1.28,1.67-3.9-.04-2.47.8-17.96.88-19.25.03-.4.14-.81.26-1.19.07-.23.25-.45.42-.64.18-.2.35-.28.58.05.63.93,1.28,1.82,1.91,2.75,1.73,2.54,11.55,18.17,13.17,20.79,4.17,6.7,7.5,14.28,7.78,15.68.4,2.01.53,6.15.32,8.54-.12,1.39-.36,2.76-.56,4.14-.61,4.29.73,7.59,1.02,8.29,4.25,10.4,19.68,19.43,21.07,20.18,23.74,12.75,29.07,1.17,29.72-.95M76.13,57.52c-10.62-18.83-22.25-36.32-23.19-37.72-.64-.96-1.34-1.85-2.06-2.76-.75-.96-.25-1.3.62-.27.64.77,1.24,1.43,1.89,2.21.93,1.11,11.64,16.78,22.55,36.72.41.75,1.21,2.08,1.3,2.86.03.3-.44.13-1.1-1.05"/>
  <path class="cls-2" d="M122.35,101.38c.23-.52.1-1.02-.47-1.05-15.83-.6-32.59-17.14-33.97-18.76-.92-1.07-5.78-6.27-6.59-14.53-.02-.19-.11-.75-.5-.27-.34.42-.57.9-.83,1.37-2.12,3.85-1.62,6.66-1.63,6.78,0,0,.04.68.08,1,.11,1.02.52,2.36.9,3.3.05.12.89,4.48,10.91,13.54.4.36.82.74,1.26,1.11,7.52,6.59,15.74,10.25,20.53,11,.91.22,3.53.18,4.55.03,1.05-.13,4.92-1.56,5.78-3.53M113.84,104.07c-.25.22-.54.23-.88.25-3.33-.38-11.99-3.16-20.93-11.01-8.53-7.47-12.54-13.75-12.7-17.75-.03-.71.12-1.41.19-2.11.02-.25.15-.46.32-.67.04.06.06.09.07.12.25,1.09.73,2.08,1.32,3,.91,1.42,1.71,2.93,2.78,4.24.11.15.2.31.3.47,1,1.6,2.16,3.07,3.54,4.35.38.36.81.62,1.32.73.41.1.84.15,1.25.25.22.05.45.12.61.25.99.84,1.98,1.7,2.96,2.55.83.73,1.65,1.47,2.49,2.19,1.47,1.24,2.95,2.46,4.42,3.7,1.76,1.49,3.6,2.88,5.59,4.1,2.25,1.38,4.52,2.71,6.78,4.06.3.19.57.39.69.74.08.24.08.35-.11.54"/>
  <path class="cls-2" d="M113.41,80.36s.03.01.04.02c.2.07.39.1.54-.1.14-.17.08-.35-.03-.5-.2-.29-.39-.58-.63-.83-1.02-1.04-1.86-2.21-2.75-3.36-.8-1.04-1.72-1.99-2.69-2.87-1.84-1.65-3.86-3.05-6.03-4.23-1.68-.91-3.44-1.61-5.31-2.03-.88-.2-1.78-.29-2.68-.41-.59-.08-1.17,0-1.72.24-.36.16-.42.29-.19.61.39.57.82,1.09,1.4,1.46.94.6,1.87,1.2,2.84,1.76,2.81,1.64,5.65,3.25,8.48,4.87,1.16.67,2.34,1.32,3.5,1.99.48.28.95.58,1.42.89,1,.67,2,1.35,3,2.02.27.18.54.32.82.48.01,0,.02,0,.02,0"/>
  <path class="cls-2" d="M34.93,47.21c-.08-.09-.24-.21-.35-.37-.55-.75-1.09-1.51-1.62-2.28-.22-.32-1.68-2.17-2.09-2.76-.33-.39-.69-.77-1-1.16-.79-.99-1.6-1.97-2.37-2.97-1.95-2.54-3.99-5.01-5.83-7.63-.4-.57-2.02-2.73-2.98-4.02-1.41-1.89-2.85-3.79-4.26-5.69-1.16-1.57-.98-1.26-2.21-2.78-.8-.97-1.56-1.97-2.32-2.97-.4-.52-.75-1.07-1.14-1.59-.74-.99-1.56-1.94-2.26-2.96-.7-1.03-1.57-1.92-2.22-2.98-.47-.78-1.1-1.48-1.68-2.19-.36-.45-.7-.91-1-1.4-.11-.2-.12-.38-.04-.58,0,0,.89-.66,2.14.92.22.28.47.54.7.82.23.27.47.54.69.82.53.69,1.05,1.38,1.58,2.07l5.85,7.95c.26.4.53.79.81,1.17,1.08,1.54.9,1.17,2,2.7,1.08,1.49,2.17,2.99,3.27,4.46.93,1.24.15.29,1.08,1.53,1.93,2.6,3.84,5.22,5.77,7.83.07.09.13.17.2.26l5.9,8.04c.23.28,1.6,2.3,1.81,2.58.13.19.24.39.4.55.22.23.41.46.63.7l.92,1.25c.06.1.11.2.14.31.03.24-.18.44-.5.35"/>
  <path class="cls-2" d="M43.02,35.66c-.05,1.58-.14,3.14-.22,4.72-.08,1.51-.22,3.01-.54,4.49-.25,1.18-.78,2.18-1.48,3.17-.38.54-.99.87-1.65,1-1.72.35-2.77-.34-2.96-.52-.1-.1-.18-.23-.1-.38.08-.16.23-.18.4-.15.05,0,.1.02.15.04.27.07.55.14.83.18.63.11,1.26.1,1.84-.19.65-.34.8-.44,1.15-1.09.14-.26.3-.51.43-.77.33-.62.6-1.28.69-1.98.12-.9.29-1.8.35-2.7.11-2.02.19-4.04.22-6.06.03-2.36.09-4.7.22-7.06.08-1.47.16-2.94.26-4.41.07-1.16.2-2.33.24-3.48.03-1.3.41-2.52.8-3.73.12-.37.31-.83.54-1.17.36-.51,1.04-1.27,1.87-.68-.23.21-.46.37-.62.57-.48.55-.89,1.16-1.06,1.9-.13.59-.29,1.17-.39,1.76-.24,1.41-.37,2.84-.41,4.28-.04,1.03-.09,2.05-.15,3.07-.05.8-.16,1.61-.19,2.41-.1,2.24-.14,4.52-.22,6.79"/>
  <path class="cls-2" d="M76.05,57.63c-10.62-18.83-22.25-36.33-23.19-37.72-.64-.96-1.34-1.85-2.06-2.76-.75-.96-.25-1.3.62-.27.64.77,1.24,1.43,1.89,2.21.93,1.11,11.64,16.78,22.55,36.72.41.75,1.21,2.08,1.3,2.86.04.29-.44.13-1.1-1.05"/>
</svg>